<!--?xml version="1.0" standalone="no"?-->
              <svg id="sw-js-blob-svg" viewBox="0 0 100 100" xmlns="http://www.w3.org/2000/svg" version="1.1">
                    <defs> 
                        <linearGradient id="sw-gradient" x1="0" x2="1" y1="1" y2="0">
                            <stop id="stop1" stop-color="rgba(248, 117, 55, 1)" offset="0%"></stop>
                            <stop id="stop2" stop-color="rgba(251, 168, 31, 1)" offset="100%"></stop>
                        </linearGradient>
                    </defs>
                <path fill="url(#sw-gradient)" d="M23.7,-32.2C29.7,-28.2,33,-20,34.4,-12C35.8,-4.1,35.4,3.6,31.6,8.7C27.8,13.9,20.8,16.4,15,20.1C9.2,23.8,4.6,28.6,-0.8,29.7C-6.1,30.8,-12.3,28.1,-16.4,23.8C-20.5,19.6,-22.6,13.8,-24.8,7.9C-26.9,1.9,-29.1,-4.1,-29.7,-11.9C-30.2,-19.6,-29.1,-29.1,-23.9,-33.4C-18.6,-37.6,-9.3,-36.8,-0.3,-36.4C8.8,-36.1,17.6,-36.3,23.7,-32.2Z" width="100%" height="100%" transform="translate(50 50)" stroke-width="0" style="transition: all 0.3s ease 0s;"></path>
              </svg>