<!--?xml version="1.0" standalone="no"?-->
              <svg id="sw-js-blob-svg" viewBox="0 0 100 100" xmlns="http://www.w3.org/2000/svg" version="1.1">
                    <defs> 
                        <linearGradient id="sw-gradient" x1="0" x2="1" y1="1" y2="0">
                            <stop id="stop1" stop-color="rgba(243.531, 91.86, 20.077, 1)" offset="0%"></stop>
                            <stop id="stop2" stop-color="rgba(0, 48.956, 255, 0.74)" offset="100%"></stop>
                        </linearGradient>
                    </defs>
                <path fill="url(#sw-gradient)" d="M25,-34.8C31.5,-29.7,35.2,-21.2,35.5,-13.2C35.8,-5.2,32.8,2.2,29.8,9.1C26.8,15.9,23.7,22.2,18.7,25.1C13.8,28,6.9,27.6,-0.1,27.8C-7.2,28,-14.3,28.8,-21.2,26.5C-28.1,24.2,-34.7,18.8,-38.4,11.5C-42.2,4.2,-43,-5,-39.1,-11.4C-35.3,-17.9,-26.8,-21.5,-19.5,-26.3C-12.1,-31.1,-6.1,-37.1,1.6,-39.3C9.3,-41.5,18.5,-39.9,25,-34.8Z" width="100%" height="100%" transform="translate(50 50)" stroke-width="0" style="transition: all 0.3s ease 0s;" stroke="url(#sw-gradient)"></path>
              </svg>