<svg width="100%" height="100%" id="svg" viewBox="0 0 1440 590" xmlns="http://www.w3.org/2000/svg" class="transition duration-300 ease-in-out delay-150"><defs><linearGradient id="gradient" x1="0%" y1="50%" x2="100%" y2="50%"><stop offset="5%" stop-color="#F78DA7"></stop><stop offset="95%" stop-color="#8ED1FC"></stop></linearGradient></defs><path d="M 0,600 L 0,150 C 95.81818181818181,134.59330143540672 191.63636363636363,119.1866028708134 284,126 C 376.3636363636364,132.8133971291866 465.27272727272725,161.8468899521531 553,175 C 640.7272727272727,188.1531100478469 727.2727272727274,185.42583732057417 837,189 C 946.7272727272726,192.57416267942583 1079.6363636363635,202.44976076555022 1184,197 C 1288.3636363636365,191.55023923444978 1364.1818181818182,170.7751196172249 1440,150 L 1440,600 L 0,600 Z" stroke="none" stroke-width="0" fill="url(#gradient)" fill-opacity="0.53" class="transition-all duration-300 ease-in-out delay-150 path-0"></path><defs><linearGradient id="gradient" x1="0%" y1="50%" x2="100%" y2="50%"><stop offset="5%" stop-color="#F78DA7"></stop><stop offset="95%" stop-color="#8ED1FC"></stop></linearGradient></defs><path d="M 0,600 L 0,350 C 77.55023923444975,344.0956937799043 155.1004784688995,338.1913875598087 257,320 C 358.8995215311005,301.8086124401913 485.1483253588517,271.33014354066984 594,276 C 702.8516746411483,280.66985645933016 794.3062200956937,320.488038277512 896,356 C 997.6937799043063,391.511961722488 1109.6267942583731,422.7177033492823 1202,421 C 1294.3732057416269,419.2822966507177 1367.1866028708134,384.6411483253588 1440,350 L 1440,600 L 0,600 Z" stroke="none" stroke-width="0" fill="url(#gradient)" fill-opacity="1" class="transition-all duration-300 ease-in-out delay-150 path-1"></path></svg>