<?xml version="1.0" standalone="no"?>
<svg xmlns:xlink="http://www.w3.org/1999/xlink" id="wave" style="transform:rotate(0deg); transition: 0.3s" viewBox="0 0 1440 400" version="1.1" xmlns="http://www.w3.org/2000/svg"><defs><linearGradient id="sw-gradient-0" x1="0" x2="0" y1="1" y2="0"><stop stop-color="rgba(62, 167.575, 243, 1)" offset="0%"/><stop stop-color="rgba(218.941, 200.131, 158.55, 1)" offset="100%"/></linearGradient></defs><path style="transform:translate(0, 0px); opacity:1" fill="url(#sw-gradient-0)" d="M0,200L120,226.7C240,253,480,307,720,313.3C960,320,1200,280,1440,280C1680,280,1920,320,2160,300C2400,280,2640,200,2880,140C3120,80,3360,40,3600,53.3C3840,67,4080,133,4320,193.3C4560,253,4800,307,5040,293.3C5280,280,5520,200,5760,140C6000,80,6240,40,6480,66.7C6720,93,6960,187,7200,220C7440,253,7680,227,7920,180C8160,133,8400,67,8640,53.3C8880,40,9120,80,9360,106.7C9600,133,9840,147,10080,133.3C10320,120,10560,80,10800,73.3C11040,67,11280,93,11520,93.3C11760,93,12000,67,12240,100C12480,133,12720,227,12960,233.3C13200,240,13440,160,13680,106.7C13920,53,14160,27,14400,20C14640,13,14880,27,15120,46.7C15360,67,15600,93,15840,146.7C16080,200,16320,280,16560,313.3C16800,347,17040,333,17160,326.7L17280,320L17280,400L17160,400C17040,400,16800,400,16560,400C16320,400,16080,400,15840,400C15600,400,15360,400,15120,400C14880,400,14640,400,14400,400C14160,400,13920,400,13680,400C13440,400,13200,400,12960,400C12720,400,12480,400,12240,400C12000,400,11760,400,11520,400C11280,400,11040,400,10800,400C10560,400,10320,400,10080,400C9840,400,9600,400,9360,400C9120,400,8880,400,8640,400C8400,400,8160,400,7920,400C7680,400,7440,400,7200,400C6960,400,6720,400,6480,400C6240,400,6000,400,5760,400C5520,400,5280,400,5040,400C4800,400,4560,400,4320,400C4080,400,3840,400,3600,400C3360,400,3120,400,2880,400C2640,400,2400,400,2160,400C1920,400,1680,400,1440,400C1200,400,960,400,720,400C480,400,240,400,120,400L0,400Z"/></svg>