<?xml version="1.0" standalone="no"?>
<svg xmlns:xlink="http://www.w3.org/1999/xlink" id="wave" style="transform:rotate(180deg); transition: 0.3s" viewBox="0 0 1440 350" version="1.1" xmlns="http://www.w3.org/2000/svg"><defs><linearGradient id="sw-gradient-0" x1="0" x2="0" y1="1" y2="0"><stop stop-color="rgba(14.985, 70.602, 105.102, 1)" offset="0%"/><stop stop-color="rgba(11, 227.721, 255, 1)" offset="100%"/></linearGradient></defs><path style="transform:translate(0, 0px); opacity:1" fill="url(#sw-gradient-0)" d="M0,140L21.8,116.7C43.6,93,87,47,131,52.5C174.5,58,218,117,262,128.3C305.5,140,349,105,393,110.8C436.4,117,480,163,524,198.3C567.3,233,611,257,655,239.2C698.2,222,742,163,785,151.7C829.1,140,873,175,916,198.3C960,222,1004,233,1047,221.7C1090.9,210,1135,175,1178,140C1221.8,105,1265,70,1309,46.7C1352.7,23,1396,12,1440,23.3C1483.6,35,1527,70,1571,105C1614.5,140,1658,175,1702,163.3C1745.5,152,1789,93,1833,64.2C1876.4,35,1920,35,1964,81.7C2007.3,128,2051,222,2095,256.7C2138.2,292,2182,268,2225,250.8C2269.1,233,2313,222,2356,227.5C2400,233,2444,257,2487,233.3C2530.9,210,2575,140,2618,145.8C2661.8,152,2705,233,2749,239.2C2792.7,245,2836,175,2880,140C2923.6,105,2967,105,3011,105C3054.5,105,3098,105,3120,105L3141.8,105L3141.8,350L3120,350C3098.2,350,3055,350,3011,350C2967.3,350,2924,350,2880,350C2836.4,350,2793,350,2749,350C2705.5,350,2662,350,2618,350C2574.5,350,2531,350,2487,350C2443.6,350,2400,350,2356,350C2312.7,350,2269,350,2225,350C2181.8,350,2138,350,2095,350C2050.9,350,2007,350,1964,350C1920,350,1876,350,1833,350C1789.1,350,1745,350,1702,350C1658.2,350,1615,350,1571,350C1527.3,350,1484,350,1440,350C1396.4,350,1353,350,1309,350C1265.5,350,1222,350,1178,350C1134.5,350,1091,350,1047,350C1003.6,350,960,350,916,350C872.7,350,829,350,785,350C741.8,350,698,350,655,350C610.9,350,567,350,524,350C480,350,436,350,393,350C349.1,350,305,350,262,350C218.2,350,175,350,131,350C87.3,350,44,350,22,350L0,350Z"/><defs><linearGradient id="sw-gradient-1" x1="0" x2="0" y1="1" y2="0"><stop stop-color="rgba(67.953, 230.325, 204.47, 1)" offset="0%"/><stop stop-color="rgba(197.419, 200.727, 171.429, 1)" offset="100%"/></linearGradient></defs><path style="transform:translate(0, 50px); opacity:0.9" fill="url(#sw-gradient-1)" d="M0,315L21.8,297.5C43.6,280,87,245,131,215.8C174.5,187,218,163,262,134.2C305.5,105,349,70,393,64.2C436.4,58,480,82,524,128.3C567.3,175,611,245,655,268.3C698.2,292,742,268,785,245C829.1,222,873,198,916,198.3C960,198,1004,222,1047,233.3C1090.9,245,1135,245,1178,215.8C1221.8,187,1265,128,1309,110.8C1352.7,93,1396,117,1440,105C1483.6,93,1527,47,1571,35C1614.5,23,1658,47,1702,58.3C1745.5,70,1789,70,1833,110.8C1876.4,152,1920,233,1964,221.7C2007.3,210,2051,105,2095,70C2138.2,35,2182,70,2225,75.8C2269.1,82,2313,58,2356,93.3C2400,128,2444,222,2487,221.7C2530.9,222,2575,128,2618,99.2C2661.8,70,2705,105,2749,134.2C2792.7,163,2836,187,2880,192.5C2923.6,198,2967,187,3011,151.7C3054.5,117,3098,58,3120,29.2L3141.8,0L3141.8,350L3120,350C3098.2,350,3055,350,3011,350C2967.3,350,2924,350,2880,350C2836.4,350,2793,350,2749,350C2705.5,350,2662,350,2618,350C2574.5,350,2531,350,2487,350C2443.6,350,2400,350,2356,350C2312.7,350,2269,350,2225,350C2181.8,350,2138,350,2095,350C2050.9,350,2007,350,1964,350C1920,350,1876,350,1833,350C1789.1,350,1745,350,1702,350C1658.2,350,1615,350,1571,350C1527.3,350,1484,350,1440,350C1396.4,350,1353,350,1309,350C1265.5,350,1222,350,1178,350C1134.5,350,1091,350,1047,350C1003.6,350,960,350,916,350C872.7,350,829,350,785,350C741.8,350,698,350,655,350C610.9,350,567,350,524,350C480,350,436,350,393,350C349.1,350,305,350,262,350C218.2,350,175,350,131,350C87.3,350,44,350,22,350L0,350Z"/></svg>